<?xml version="1.0" encoding="utf-8"?>
<!-- Generator: Adobe Illustrator 22.0.1, SVG Export Plug-In . SVG Version: 6.00 Build 0)  -->
<svg version="1.1" id="Layer_1" xmlns="http://www.w3.org/2000/svg" xmlns:xlink="http://www.w3.org/1999/xlink" x="0px" y="0px"
	 viewBox="0 0 800 600" style="enable-background:new 0 0 800 600;" xml:space="preserve">
<style type="text/css">
	.st0{fill:#FFFFFF;stroke:#000000;stroke-width:3;}
	.st1{fill:#27AAE1;fill-opacity:0.8087;stroke:#000000;stroke-width:3;}
</style>
<path class="st0" d="M467.7,51.2c-22.4-0.4-49.6,7.8-50.3,11.6c-6.2,60.4-22,121.5-18.4,181.5c4.4,74.8,35.1,148.5,42.5,223.1
	c3,30.2-11,56.2-11.5,82.7c-0.2,12,10,23.9,29.4,24.3c20.5,0.3,30-11.3,30.2-23.3c0.4-26.4-12-52.6-8.2-82.7
	c9.4-74.4,40.9-147.3,47.6-222c5.4-60-7.4-121.3-11.1-182C517.7,60.3,489.1,51.5,467.7,51.2L467.7,51.2z"/>
<path class="st1" d="M521.6,295.4c-38.8-5.3-77.2-6.1-116.1-1.8c-13.5-58.4-5.8-107.9,1.9-157.5c38.8-3.5,78.9-3,117.9,1.9
	C530.2,186.5,535,232.1,521.6,295.4L521.6,295.4z"/>
<path class="st1" d="M484.8,514.7c-16.3-2.9-32.3-3.2-48.4-0.7c7-30.5,6.8-41.9,1.4-73.7c16.1,1.8,31.7,2.2,48,0.8
	C480,472.6,479.2,484.1,484.8,514.7L484.8,514.7z"/>
</svg>
