<svg xmlns="http://www.w3.org/2000/svg" xmlns:xlink="http://www.w3.org/1999/xlink" viewBox="0 0 1367 1298"><defs><style>.cls-1{fill:none;}.cls-2{clip-path:url(#clip-path);}.cls-3{fill:#3fa9f5;}.cls-4{fill:#7ac943;}.cls-5{fill:#ff7bac;}.cls-6{fill:#ff931e;}</style><clipPath id="clip-path" transform="translate(0 249)"><rect class="cls-1" x="-4" y="1" width="1369" height="771"/></clipPath></defs><title>bubble_gum_bg</title><g id="Layer_2" data-name="Layer 2"><g class="cls-2"><path class="cls-3" d="M683.5,400,0-249H124.27Q437.74,88.27,683.5,400Z" transform="translate(0 249)"/><path class="cls-4" d="M683.5,400A5657.41,5657.41,0,0,0,248.55-249H372.82Q540.19,35.14,683.5,400Z" transform="translate(0 249)"/><path class="cls-3" d="M683.5,400Q596.34,19.5,497.09-249H621.36Q654.24,11.6,683.5,400Z" transform="translate(0 249)"/><path class="cls-4" d="M683.5,400q29.25-388.41,62.14-649H869.91Q770.67,19.5,683.5,400Z" transform="translate(0 249)"/><path class="cls-3" d="M683.5,400Q826.81,35.16,994.18-249h124.27A5657.41,5657.41,0,0,0,683.5,400Z" transform="translate(0 249)"/><path class="cls-4" d="M683.5,400Q929.26,88.27,1242.73-249H1367Z" transform="translate(0 249)"/><path class="cls-3" d="M683.5,400Q1011.81,166.65,1367-131V-13Q1043.44,213.38,683.5,400Z" transform="translate(0 249)"/><path class="cls-4" d="M683.5,400Q1067.74,263.92,1367,105V223Q1084.22,317.23,683.5,400Z" transform="translate(0 249)"/><path class="cls-3" d="M683.5,400q409.05-27.78,683.5-59V459Q1092.56,427.79,683.5,400Z" transform="translate(0 249)"/><path class="cls-4" d="M683.5,400q400.72,82.77,683.5,177V695Q1067.75,536.07,683.5,400Z" transform="translate(0 249)"/><path class="cls-3" d="M683.5,400Q1043.44,586.62,1367,813V931Q1011.8,633.36,683.5,400Z" transform="translate(0 249)"/><path class="cls-4" d="M683.5,400,1367,1049H1242.73Q929.26,711.72,683.5,400Z" transform="translate(0 249)"/><path class="cls-3" d="M683.5,400a5657.41,5657.41,0,0,0,435,649H994.18Q826.81,764.86,683.5,400Z" transform="translate(0 249)"/><path class="cls-4" d="M683.5,400q87.16,380.5,186.41,649H745.64Q712.76,788.41,683.5,400Z" transform="translate(0 249)"/><path class="cls-3" d="M683.5,400q-29.25,388.41-62.14,649H497.09Q596.33,780.5,683.5,400Z" transform="translate(0 249)"/><path class="cls-4" d="M683.5,400Q540.19,764.85,372.82,1049H248.55A5657.41,5657.41,0,0,0,683.5,400Z" transform="translate(0 249)"/><path class="cls-3" d="M683.5,400Q437.74,711.73,124.27,1049H0Z" transform="translate(0 249)"/><path class="cls-4" d="M683.5,400Q355.2,633.36,0,931V813Q323.57,586.62,683.5,400Z" transform="translate(0 249)"/><path class="cls-3" d="M683.5,400Q299.26,536.08,0,695V577Q282.77,482.77,683.5,400Z" transform="translate(0 249)"/><path class="cls-4" d="M683.5,400Q274.45,427.78,0,459V341Q274.44,372.22,683.5,400Z" transform="translate(0 249)"/><path class="cls-3" d="M683.5,400Q282.78,317.23,0,223V105Q299.25,263.92,683.5,400Z" transform="translate(0 249)"/><path class="cls-4" d="M683.5,400Q323.56,213.38,0-13V-131Q355.2,166.65,683.5,400Z" transform="translate(0 249)"/><path class="cls-5" d="M683.5,400Q437.74,88.27,124.27-249H248.55A5657.41,5657.41,0,0,1,683.5,400Z" transform="translate(0 249)"/><path class="cls-6" d="M683.5,400Q540.19,35.16,372.82-249H497.09Q596.33,19.5,683.5,400Z" transform="translate(0 249)"/><path class="cls-5" d="M683.5,400Q654.25,11.59,621.36-249H745.64Q712.76,11.6,683.5,400Z" transform="translate(0 249)"/><path class="cls-6" d="M683.5,400Q770.67,19.5,869.91-249H994.18Q826.81,35.14,683.5,400Z" transform="translate(0 249)"/><path class="cls-5" d="M683.5,400a5657.41,5657.41,0,0,1,435-649h124.28Q929.26,88.27,683.5,400Z" transform="translate(0 249)"/><path class="cls-6" d="M683.5,400,1367-249v118Q1011.8,166.65,683.5,400Z" transform="translate(0 249)"/><path class="cls-5" d="M683.5,400Q1043.44,213.38,1367-13V105Q1067.75,263.92,683.5,400Z" transform="translate(0 249)"/><path class="cls-6" d="M683.5,400q400.72-82.77,683.5-177V341Q1092.56,372.22,683.5,400Z" transform="translate(0 249)"/><path class="cls-5" d="M683.5,400q409.05,27.78,683.5,59V577Q1084.22,482.77,683.5,400Z" transform="translate(0 249)"/><path class="cls-6" d="M683.5,400Q1067.74,536.08,1367,695V813Q1043.44,586.62,683.5,400Z" transform="translate(0 249)"/><path class="cls-5" d="M683.5,400Q1011.81,633.36,1367,931v118Z" transform="translate(0 249)"/><path class="cls-6" d="M683.5,400q245.76,311.73,559.23,649H1118.45A5657.41,5657.41,0,0,1,683.5,400Z" transform="translate(0 249)"/><path class="cls-5" d="M683.5,400q143.31,364.85,310.68,649H869.91Q770.67,780.5,683.5,400Z" transform="translate(0 249)"/><path class="cls-6" d="M683.5,400q29.25,388.41,62.14,649H621.36Q654.24,788.41,683.5,400Z" transform="translate(0 249)"/><path class="cls-5" d="M683.5,400q-87.16,380.5-186.41,649H372.82Q540.19,764.86,683.5,400Z" transform="translate(0 249)"/><path class="cls-6" d="M683.5,400a5657.41,5657.41,0,0,1-434.95,649H124.27Q437.74,711.72,683.5,400Z" transform="translate(0 249)"/><path class="cls-5" d="M683.5,400,0,1049V931Q355.2,633.36,683.5,400Z" transform="translate(0 249)"/><path class="cls-6" d="M683.5,400Q323.56,586.62,0,813V695Q299.25,536.07,683.5,400Z" transform="translate(0 249)"/><path class="cls-5" d="M683.5,400Q282.78,482.77,0,577V459Q274.44,427.79,683.5,400Z" transform="translate(0 249)"/><path class="cls-6" d="M683.5,400Q274.45,372.22,0,341V223Q282.77,317.23,683.5,400Z" transform="translate(0 249)"/><path class="cls-5" d="M683.5,400Q299.26,263.92,0,105V-13Q323.57,213.38,683.5,400Z" transform="translate(0 249)"/><path class="cls-6" d="M683.5,400Q355.2,166.65,0-131V-249Z" transform="translate(0 249)"/></g></g></svg>