<svg xmlns="http://www.w3.org/2000/svg" viewBox="0 0 1925 1925"><defs><style>.cls-1{fill:#968291;}.cls-2{fill:#fff;}.cls-3,.cls-4{isolation:isolate;}.cls-4{font-size:314.67px;fill:#0d0c0c;stroke:#fff;stroke-miterlimit:10;stroke-width:2px;font-family:Munson, Munson;}</style></defs><title>game_over_page</title><g id="Layer_1" data-name="Layer 1"><path class="cls-1" d="M962.5,565.5,0-397H175Q616.42,103.19,962.5,565.5Z" transform="translate(0 397)"/><path class="cls-1" d="M962.5,565.5Q685.74,58.64,350-397H525Q760.68,24.41,962.5,565.5Z" transform="translate(0 397)"/><path class="cls-1" d="M962.5,565.5Q839.74,1.2,700-397H875Q921.31-10.53,962.5,565.5Z" transform="translate(0 397)"/><path class="cls-1" d="M962.5,565.5q41.21-576,87.5-962.5h175Q1085.26,1.19,962.5,565.5Z" transform="translate(0 397)"/><path class="cls-1" d="M962.5,565.5Q1164.31,24.4,1400-397h175Q1239.27,58.64,962.5,565.5Z" transform="translate(0 397)"/><path class="cls-1" d="M962.5,565.5Q1308.58,103.19,1750-397h175Z" transform="translate(0 397)"/><path class="cls-1" d="M962.5,565.5Q1424.82,219.42,1925-222V-47Q1469.36,288.73,962.5,565.5Z" transform="translate(0 397)"/><path class="cls-1" d="M962.5,565.5Q1503.58,363.69,1925,128V303Q1526.8,442.74,962.5,565.5Z" transform="translate(0 397)"/><path class="cls-1" d="M962.5,565.5q576-41.21,962.5-87.5V653Q1538.53,606.69,962.5,565.5Z" transform="translate(0 397)"/><path class="cls-1" d="M962.5,565.5Q1526.8,688.26,1925,828v175Q1503.59,767.32,962.5,565.5Z" transform="translate(0 397)"/><path class="cls-1" d="M962.5,565.5Q1469.37,842.27,1925,1178v175Q1424.81,911.58,962.5,565.5Z" transform="translate(0 397)"/><path class="cls-1" d="M962.5,565.5,1925,1528H1750Q1308.58,1027.81,962.5,565.5Z" transform="translate(0 397)"/><path class="cls-1" d="M962.5,565.5Q1239.26,1072.37,1575,1528H1400Q1164.32,1106.59,962.5,565.5Z" transform="translate(0 397)"/><path class="cls-1" d="M962.5,565.5Q1085.26,1129.8,1225,1528H1050Q1003.7,1141.52,962.5,565.5Z" transform="translate(0 397)"/><path class="cls-1" d="M962.5,565.5q-41.21,576-87.5,962.5H700Q839.74,1129.8,962.5,565.5Z" transform="translate(0 397)"/><path class="cls-1" d="M962.5,565.5Q760.69,1106.58,525,1528H350Q685.73,1072.36,962.5,565.5Z" transform="translate(0 397)"/><path class="cls-1" d="M962.5,565.5Q616.42,1027.82,175,1528H0Z" transform="translate(0 397)"/><path class="cls-1" d="M962.5,565.5Q500.18,911.58,0,1353V1178Q455.64,842.27,962.5,565.5Z" transform="translate(0 397)"/><path class="cls-1" d="M962.5,565.5Q421.42,767.31,0,1003V828Q398.19,688.26,962.5,565.5Z" transform="translate(0 397)"/><path class="cls-1" d="M962.5,565.5Q386.47,606.71,0,653V478Q386.48,524.31,962.5,565.5Z" transform="translate(0 397)"/><path class="cls-1" d="M962.5,565.5Q398.2,442.74,0,303V128Q421.41,363.68,962.5,565.5Z" transform="translate(0 397)"/><path class="cls-1" d="M962.5,565.5Q455.64,288.74,0-47V-222Q500.19,219.42,962.5,565.5Z" transform="translate(0 397)"/><path class="cls-2" d="M962.5,565.5Q616.42,103.19,175-397H350Q685.73,58.64,962.5,565.5Z" transform="translate(0 397)"/><path class="cls-2" d="M962.5,565.5Q760.69,24.4,525-397H700Q839.74,1.19,962.5,565.5Z" transform="translate(0 397)"/><path class="cls-2" d="M962.5,565.5Q921.3-10.53,875-397h175Q1003.7-10.53,962.5,565.5Z" transform="translate(0 397)"/><path class="cls-2" d="M962.5,565.5Q1085.26,1.2,1225-397h175Q1164.32,24.41,962.5,565.5Z" transform="translate(0 397)"/><path class="cls-2" d="M962.5,565.5Q1239.26,58.64,1575-397h175Q1308.58,103.19,962.5,565.5Z" transform="translate(0 397)"/><path class="cls-2" d="M962.5,565.5,1925-397v175Q1424.81,219.42,962.5,565.5Z" transform="translate(0 397)"/><path class="cls-2" d="M962.5,565.5Q1469.37,288.74,1925-47V128Q1503.59,363.68,962.5,565.5Z" transform="translate(0 397)"/><path class="cls-2" d="M962.5,565.5Q1526.8,442.74,1925,303V478Q1538.53,524.31,962.5,565.5Z" transform="translate(0 397)"/><path class="cls-2" d="M962.5,565.5q576,41.21,962.5,87.5V828Q1526.8,688.26,962.5,565.5Z" transform="translate(0 397)"/><path class="cls-2" d="M962.5,565.5Q1503.58,767.31,1925,1003v175Q1469.36,842.27,962.5,565.5Z" transform="translate(0 397)"/><path class="cls-2" d="M962.5,565.5Q1424.82,911.58,1925,1353v175Z" transform="translate(0 397)"/><path class="cls-2" d="M962.5,565.5Q1308.58,1027.82,1750,1528H1575Q1239.27,1072.36,962.5,565.5Z" transform="translate(0 397)"/><path class="cls-2" d="M962.5,565.5Q1164.31,1106.58,1400,1528H1225Q1085.26,1129.8,962.5,565.5Z" transform="translate(0 397)"/><path class="cls-2" d="M962.5,565.5q41.21,576,87.5,962.5H875Q921.31,1141.52,962.5,565.5Z" transform="translate(0 397)"/><path class="cls-2" d="M962.5,565.5Q839.74,1129.8,700,1528H525Q760.68,1106.59,962.5,565.5Z" transform="translate(0 397)"/><path class="cls-2" d="M962.5,565.5Q685.74,1072.37,350,1528H175Q616.42,1027.81,962.5,565.5Z" transform="translate(0 397)"/><path class="cls-2" d="M962.5,565.5,0,1528V1353Q500.19,911.58,962.5,565.5Z" transform="translate(0 397)"/><path class="cls-2" d="M962.5,565.5Q455.64,842.27,0,1178V1003Q421.41,767.32,962.5,565.5Z" transform="translate(0 397)"/><path class="cls-2" d="M962.5,565.5Q398.2,688.26,0,828V653Q386.48,606.69,962.5,565.5Z" transform="translate(0 397)"/><path class="cls-2" d="M962.5,565.5Q386.47,524.29,0,478V303Q398.19,442.74,962.5,565.5Z" transform="translate(0 397)"/><path class="cls-2" d="M962.5,565.5Q421.42,363.69,0,128V-47Q455.64,288.73,962.5,565.5Z" transform="translate(0 397)"/><path class="cls-2" d="M962.5,565.5Q500.18,219.42,0-222V-397Z" transform="translate(0 397)"/></g><g id="Layer_2" data-name="Layer 2"><text y="397"></text><g id="Artboard_1" data-name="Artboard 1"><g id="GAME_OVER" data-name="GAME OVER" class="cls-3"><text class="cls-4" transform="translate(450 885.5)">GAME </text><text class="cls-4" transform="translate(525.98 1263.1)">OVER</text></g></g></g></svg>